<svg width="24" height="24" viewBox="0 0 24 24" fill="none" xmlns="http://www.w3.org/2000/svg">
<path d="M6.678 3.608L6.233 5.834C6.16304 6.18274 5.99557 6.50449 5.75006 6.76186C5.50455 7.01923 5.19106 7.20167 4.846 7.288C4.03317 7.4917 3.31168 7.96108 2.79607 8.62163C2.28045 9.28218 2.00027 10.096 2 10.934V18C2 19.0609 2.42143 20.0783 3.17157 20.8284C3.92172 21.5786 4.93913 22 6 22H18C19.0609 22 20.0783 21.5786 20.8284 20.8284C21.5786 20.0783 22 19.0609 22 18V10.934C21.9997 10.096 21.7195 9.28218 21.2039 8.62163C20.6883 7.96108 19.9668 7.4917 19.154 7.288C18.8089 7.20167 18.4955 7.01923 18.2499 6.76186C18.0044 6.50449 17.837 6.18274 17.767 5.834L17.322 3.608C17.2313 3.15444 16.9863 2.74633 16.6286 2.45314C16.2708 2.15995 15.8225 1.99982 15.36 2H8.64C8.17747 1.99982 7.72918 2.15995 7.37144 2.45314C7.01371 2.74633 6.76866 3.15444 6.678 3.608Z" stroke="currentColor" stroke-width="2" stroke-linecap="round" stroke-linejoin="round"/>
<path d="M12 18C14.2091 18 16 16.2091 16 14C16 11.7909 14.2091 10 12 10C9.79086 10 8 11.7909 8 14C8 16.2091 9.79086 18 12 18Z" stroke="currentColor" stroke-width="2" stroke-linecap="round" stroke-linejoin="round"/>
<path d="M11 6H13" stroke="currentColor" stroke-width="2" stroke-linecap="round" stroke-linejoin="round"/>
</svg>
