<svg width="24" height="24" viewBox="0 0 24 24" fill="none" xmlns="http://www.w3.org/2000/svg">
<path fill-rule="evenodd" clip-rule="evenodd" d="M15.6299 5.28246C15.1859 5.05446 15.0683 4.75446 15.1019 4.42686C15.1343 4.12446 15.2963 3.79686 15.4547 3.47766L15.5411 3.30246C15.8027 2.76246 15.9791 2.26326 15.3935 1.97046C14.7048 2.04616 14.0215 2.16439 13.3475 2.32446C8.40947 3.50166 5.27027 6.68886 4.09547 8.96166C3.31907 10.4659 3.00614 12.1666 3.19624 13.8487C3.38635 15.5308 4.07096 17.1188 5.16351 18.4119C6.25606 19.7049 7.70748 20.645 9.33426 21.1132C10.961 21.5814 12.6901 21.5567 14.3029 21.0423C15.9156 20.5278 17.3396 19.5467 18.3949 18.223C19.4501 16.8994 20.0891 15.2925 20.2311 13.6057C20.3731 11.9188 20.0118 10.2277 19.1928 8.74622C18.3738 7.26472 17.1339 6.05933 15.6299 5.28246ZM12.7295 4.99446C9.19667 6.18006 7.01507 8.54046 6.22907 10.0633C5.67037 11.1458 5.44523 12.3697 5.58211 13.5802C5.71899 14.7907 6.21174 15.9335 6.99805 16.8639C7.78437 17.7944 8.82894 18.4708 9.99967 18.8076C11.1704 19.1445 12.4147 19.1266 13.5753 18.7562C14.7358 18.3858 15.7605 17.6797 16.5198 16.727C17.279 15.7743 17.7387 14.6178 17.8407 13.4039C17.9427 12.19 17.6824 10.973 17.0928 9.90699C16.5032 8.84095 15.6108 7.97369 14.5283 7.41486C13.9813 7.14138 13.517 6.7272 13.1831 6.21486C12.9477 5.84448 12.7932 5.42863 12.7295 4.99446Z" fill="currentColor"/>
<path fill-rule="evenodd" clip-rule="evenodd" d="M10.2428 13.9387C9.99121 13.7437 9.67246 13.6567 9.35669 13.6967C9.04091 13.7367 8.75396 13.9005 8.55898 14.1521C8.36399 14.4037 8.27694 14.7225 8.31696 15.0382C8.35699 15.354 8.52081 15.641 8.7724 15.8359L8.77454 15.837L8.7772 15.8397L8.78307 15.8441L8.79962 15.8565C8.86575 15.9064 8.93359 15.954 9.00301 15.9992C9.17265 16.1104 9.34917 16.2107 9.53149 16.2995C9.9619 16.5121 10.6083 16.7579 11.3622 16.7798C12.1139 16.8005 12.768 16.5978 13.2068 16.4133C13.4684 16.3038 13.7198 16.1714 13.958 16.0175L13.9758 16.0064L13.9822 16.0016L13.9849 15.999C13.9865 15.9984 13.9882 15.9979 13.3033 15.0106L13.9871 15.9974C14.2441 15.8151 14.4191 15.539 14.4743 15.2288C14.5295 14.9186 14.4605 14.5991 14.2821 14.3393C14.1038 14.0795 13.8304 13.9004 13.5211 13.8404C13.2117 13.7805 12.8912 13.8447 12.6288 14.0191L12.6207 14.0244L12.5565 14.0631C12.4661 14.1153 12.3723 14.1615 12.2759 14.2015C12.0105 14.3206 11.7228 14.3815 11.4319 14.3803C11.1392 14.3638 10.8536 14.2843 10.5943 14.1475C10.4746 14.0898 10.3599 14.0224 10.2513 13.9457L10.2428 13.9387Z" fill="currentColor"/>
</svg>
