<svg width="24" height="24" viewBox="0 0 24 24" fill="none" xmlns="http://www.w3.org/2000/svg">
<path d="M6.34279 19.52C4.84272 18.0198 4 15.9851 4 13.8635C4 11.742 4.84272 9.70731 6.34279 8.20705L11.9998 2.55005L17.6568 8.20705C19.1571 9.70738 20 11.7423 20 13.864C20 15.9858 19.1571 18.0207 17.6568 19.521C16.1565 21.0214 14.1216 21.8643 11.9998 21.8643C9.878 21.8643 7.84312 21.0204 6.34279 19.52Z" stroke="currentColor" stroke-width="2"/>
<path d="M14.8355 15.6428C14.0804 14.9768 13.0861 14.5714 12.0001 14.5714C10.9563 14.5714 9.94835 14.9524 9.1655 15.6428C9.08108 15.7172 9.01215 15.8076 8.96265 15.9087C8.91315 16.0098 8.88404 16.1197 8.877 16.232C8.86996 16.3444 8.88511 16.457 8.92159 16.5635C8.95808 16.67 9.01518 16.7682 9.08964 16.8526C9.1641 16.9371 9.25446 17.006 9.35556 17.0555C9.45666 17.105 9.56651 17.1341 9.67886 17.1411C9.7912 17.1482 9.90384 17.133 10.0103 17.0965C10.1168 17.0601 10.2151 17.003 10.2995 16.9285C10.7529 16.5274 11.3478 16.2856 12.0001 16.2856C12.6263 16.2857 13.231 16.5143 13.7006 16.9285C13.8711 17.079 14.0944 17.1556 14.3214 17.1414C14.5484 17.1273 14.7604 17.0236 14.9109 16.8531C15.0614 16.6826 15.138 16.4593 15.1239 16.2323C15.1097 16.0053 15.006 15.7933 14.8355 15.6428Z" fill="currentColor"/>
<path d="M9.90921 10.6622C9.66809 10.4211 9.34106 10.2856 9.00007 10.2856C8.65908 10.2856 8.33205 10.4211 8.09093 10.6622C7.84981 10.9033 7.71436 11.2304 7.71436 11.5714C7.71436 11.9124 7.84981 12.2394 8.09093 12.4805C8.33205 12.7216 8.65908 12.8571 9.00007 12.8571C9.34106 12.8571 9.66809 12.7216 9.90921 12.4805C10.1503 12.2394 10.2858 11.9124 10.2858 11.5714C10.2858 11.2304 10.1503 10.9033 9.90921 10.6622Z" fill="currentColor"/>
<path d="M15.9092 10.6622C15.6681 10.4211 15.3411 10.2856 15.0001 10.2856C14.6591 10.2856 14.3321 10.4211 14.0909 10.6622C13.8498 10.9033 13.7144 11.2304 13.7144 11.5714C13.7144 11.9124 13.8498 12.2394 14.0909 12.4805C14.3321 12.7216 14.6591 12.8571 15.0001 12.8571C15.3411 12.8571 15.6681 12.7216 15.9092 12.4805C16.1503 12.2394 16.2858 11.9124 16.2858 11.5714C16.2858 11.2304 16.1503 10.9033 15.9092 10.6622Z" fill="currentColor"/>
</svg>
