<svg width="24" height="24" viewBox="0 0 24 24" fill="none" xmlns="http://www.w3.org/2000/svg">
<path d="M16.7241 3.02991C16.349 2.65497 15.8404 2.44434 15.3101 2.44434C14.7798 2.44434 14.2711 2.65497 13.8961 3.02991L3.58209 13.3439C3.20699 13.7189 2.99621 14.2275 2.99609 14.7579V19.9909C2.99609 20.5479 3.44909 21.0009 4.00609 21.0009L20.0001 20.9999C20.2653 20.9999 20.5197 20.8946 20.7072 20.707C20.8947 20.5195 21.0001 20.2651 21.0001 19.9999C21.0001 19.7347 20.8947 19.4803 20.7072 19.2928C20.5197 19.1053 20.2653 18.9999 20.0001 18.9999H12.0681L20.9671 10.1009C21.342 9.72585 21.5527 9.21724 21.5527 8.68691C21.5527 8.15658 21.342 7.64796 20.9671 7.27291L16.7241 3.02991Z" fill="currentColor"/>
</svg>
