<svg preserveAspectRatio="none" width="100%" height="100%" overflow="visible" style="display: block;" viewBox="0 0 24 24" fill="none" xmlns="http://www.w3.org/2000/svg">
<g id="ion:flash-off">
<path id="Vector" d="M20.25 21C20.1515 21.0002 20.0539 20.9808 19.9629 20.9431C19.872 20.9053 19.7893 20.85 19.7198 20.7802L3.21984 4.28016C3.08513 4.13836 3.01114 3.94955 3.01364 3.75398C3.01614 3.5584 3.09495 3.37155 3.23325 3.23325C3.37155 3.09495 3.55841 3.01614 3.75398 3.01364C3.94955 3.01114 4.13836 3.08513 4.28016 3.21984L20.7802 19.7198C20.885 19.8247 20.9563 19.9583 20.9853 20.1038C21.0142 20.2492 20.9993 20.4 20.9426 20.537C20.8858 20.674 20.7898 20.7911 20.6665 20.8735C20.5432 20.9559 20.3983 20.9999 20.25 21ZM20.2266 9.5625C20.185 9.40145 20.091 9.25878 19.9595 9.15696C19.828 9.05513 19.6663 8.99992 19.5 9H14.3995L15.7219 1.76391C15.7242 1.74984 15.7266 1.73625 15.728 1.72219C15.7518 1.53456 15.7135 1.34427 15.6189 1.18048C15.5243 1.0167 15.3786 0.888441 15.2042 0.815361C15.0297 0.742281 14.8361 0.728408 14.653 0.775867C14.4699 0.823326 14.3075 0.9295 14.1905 1.07813L9.85078 6.44344C9.82162 6.47952 9.80688 6.52512 9.80939 6.57144C9.8119 6.61776 9.83149 6.6615 9.86437 6.69422L16.9425 13.7723C16.9611 13.7909 16.9834 13.8054 17.0079 13.8149C17.0324 13.8243 17.0587 13.8285 17.085 13.8271C17.1112 13.8257 17.1369 13.8189 17.1603 13.8069C17.1837 13.795 17.2044 13.7783 17.2209 13.7578L20.0709 10.2347C20.1476 10.1426 20.2015 10.0338 20.2286 9.91707C20.2556 9.80035 20.2549 9.67891 20.2266 9.5625ZM14.1361 17.3058L7.05797 10.2277C7.0394 10.2091 7.01714 10.1947 6.99265 10.1853C6.96815 10.1759 6.94195 10.1718 6.91576 10.1732C6.88956 10.1745 6.86394 10.1814 6.84055 10.1933C6.81717 10.2052 6.79654 10.2218 6.78 10.2422L3.92813 13.7644C3.85153 13.8567 3.79763 13.9657 3.77077 14.0825C3.7439 14.1994 3.74482 14.321 3.77344 14.4375C3.81502 14.5986 3.90897 14.7412 4.04049 14.843C4.17202 14.9449 4.33366 15.0001 4.5 15H9.60141L8.28469 22.2356V22.2408C8.25219 22.4293 8.28342 22.6233 8.37344 22.7922C8.46346 22.961 8.60715 23.0951 8.78182 23.1731C8.95649 23.2512 9.1522 23.2689 9.33804 23.2234C9.52389 23.1779 9.68928 23.0718 9.80812 22.9219L14.1492 17.5566C14.1784 17.5205 14.1933 17.475 14.1908 17.4286C14.1884 17.3823 14.1689 17.3386 14.1361 17.3058Z" fill="var(--fill-0, #2E2B28)"/>
</g>
</svg>
