<svg width="24" height="24" viewBox="0 0 24 24" fill="none" xmlns="http://www.w3.org/2000/svg">
<path d="M9.13211 23.2501C9.00645 23.2502 8.88229 23.2228 8.76835 23.1698C8.65442 23.1168 8.55347 23.0394 8.47261 22.9433C8.39175 22.8471 8.33293 22.7343 8.30029 22.613C8.26765 22.4916 8.26197 22.3646 8.28367 22.2408V22.2357L9.60133 15.0001H4.49992C4.35832 15.0001 4.21962 14.96 4.09985 14.8844C3.98009 14.8089 3.88416 14.7009 3.82316 14.5732C3.76216 14.4454 3.73858 14.3029 3.75515 14.1623C3.77172 14.0217 3.82776 13.8886 3.91679 13.7785L14.1904 1.07819C14.3073 0.92975 14.4697 0.823695 14.6526 0.776244C14.8355 0.728794 15.0289 0.742559 15.2033 0.815437C15.3776 0.888314 15.5233 1.01629 15.6181 1.1798C15.7128 1.34331 15.7514 1.53334 15.7279 1.72085C15.7279 1.73491 15.7241 1.7485 15.7218 1.76257L14.3995 9.00007H19.4999C19.6415 9.00008 19.7802 9.04018 19.9 9.11573C20.0197 9.19128 20.1157 9.29919 20.1767 9.42697C20.2377 9.55476 20.2613 9.6972 20.2447 9.83783C20.2281 9.97846 20.1721 10.1115 20.083 10.2216L9.80805 22.9219C9.72731 23.024 9.6246 23.1064 9.50757 23.1632C9.39054 23.2201 9.2622 23.2497 9.13211 23.2501Z" fill="currentColor"/>
</svg>
