<svg width="24" height="24" viewBox="0 0 24 24" fill="none" xmlns="http://www.w3.org/2000/svg">
<path d="M20.2501 21.0001C20.1516 21.0003 20.054 20.9809 19.963 20.9432C19.872 20.9054 19.7894 20.8501 19.7199 20.7802L3.21994 4.28025C3.08522 4.13845 3.01123 3.94964 3.01373 3.75407C3.01624 3.5585 3.09504 3.37164 3.23334 3.23334C3.37164 3.09504 3.5585 3.01623 3.75407 3.01373C3.94964 3.01123 4.13845 3.08522 4.28025 3.21994L20.7802 19.7199C20.8851 19.8248 20.9564 19.9584 20.9854 20.1039C21.0143 20.2493 20.9994 20.4001 20.9427 20.5371C20.8859 20.6741 20.7899 20.7912 20.6666 20.8736C20.5433 20.956 20.3984 21 20.2501 21.0001ZM20.2267 9.56259C20.1851 9.40154 20.0911 9.25888 19.9596 9.15705C19.8281 9.05522 19.6664 9.00001 19.5001 9.00009H14.3996L15.722 1.764C15.7243 1.74994 15.7267 1.73634 15.7281 1.72228C15.7519 1.53465 15.7136 1.34436 15.619 1.18058C15.5244 1.01679 15.3787 0.888533 15.2043 0.815452C15.0298 0.742372 14.8362 0.728499 14.6531 0.775958C14.47 0.823418 14.3076 0.929592 14.1906 1.07822L9.85087 6.44353C9.82172 6.47961 9.80697 6.52521 9.80948 6.57153C9.81199 6.61785 9.83158 6.66159 9.86447 6.69431L16.9426 13.7724C16.9612 13.791 16.9835 13.8055 17.008 13.815C17.0325 13.8244 17.0588 13.8286 17.085 13.8272C17.1113 13.8258 17.137 13.819 17.1604 13.807C17.1838 13.7951 17.2045 13.7783 17.221 13.7579L20.071 10.2348C20.1476 10.1427 20.2016 10.0339 20.2287 9.91716C20.2557 9.80044 20.255 9.67901 20.2267 9.56259ZM14.1362 17.3059L7.05806 10.2277C7.03949 10.2092 7.01724 10.1948 6.99274 10.1854C6.96824 10.176 6.94205 10.1719 6.91585 10.1732C6.88965 10.1746 6.86403 10.1815 6.84065 10.1934C6.81726 10.2052 6.79663 10.2219 6.78009 10.2423L3.92822 13.7645C3.85162 13.8568 3.79773 13.9657 3.77086 14.0826C3.744 14.1995 3.74491 14.3211 3.77353 14.4376C3.81512 14.5986 3.90906 14.7413 4.04059 14.8431C4.17211 14.945 4.33376 15.0002 4.50009 15.0001H9.6015L8.28478 22.2357V22.2409C8.25228 22.4294 8.28351 22.6234 8.37353 22.7923C8.46355 22.9611 8.60724 23.0951 8.78191 23.1732C8.95658 23.2513 9.15229 23.269 9.33814 23.2235C9.52398 23.178 9.68938 23.0719 9.80822 22.922L14.1493 17.5567C14.1785 17.5206 14.1934 17.4751 14.1909 17.4287C14.1885 17.3824 14.169 17.3386 14.1362 17.3059Z" fill="currentColor"/>
</svg>
