<svg preserveAspectRatio="none" width="100%" height="100%" overflow="visible" style="display: block;" viewBox="0 0 19 21.314" fill="none" xmlns="http://www.w3.org/2000/svg">
<g id="Group">
<g id="Vector">
</g>
<path id="Vector_2" fill-rule="evenodd" clip-rule="evenodd" d="M9.5 3.00004C8.27887 3.00031 7.08252 3.34456 6.048 3.99334C5.01348 4.64213 4.18263 5.56921 3.65066 6.66837C3.11869 7.76754 2.9071 8.99433 3.04014 10.2082C3.17317 11.422 3.64546 12.5739 4.40288 13.5317C5.16029 14.4896 6.17221 15.2147 7.3227 15.624C8.47319 16.0333 9.71571 16.1103 10.9079 15.846C12.1001 15.5818 13.1938 14.9871 14.0636 14.13C14.9334 13.273 15.5442 12.1882 15.826 11H10.5C10.1022 11 9.72065 10.842 9.43934 10.5607C9.15804 10.2794 9 9.89786 9 9.50004C9 9.10221 9.15804 8.72068 9.43934 8.43938C9.72065 8.15807 10.1022 8.00004 10.5 8.00004H17.5C17.8978 8.00004 18.2794 8.15807 18.5607 8.43938C18.842 8.72068 19 9.10221 19 9.50004C19 11.6968 18.2387 13.8256 16.8457 15.5242C15.4526 17.2228 13.514 18.3862 11.3598 18.8162C9.20551 19.2462 6.9688 18.9164 5.03037 17.8829C3.09194 16.8493 1.5716 15.1759 0.728154 13.1476C-0.115296 11.1192 -0.229727 8.8612 0.404341 6.75794C1.03841 4.65469 2.38179 2.83618 4.2058 1.61196C6.02981 0.387745 8.22171 -0.16651 10.4084 0.0435448C12.5951 0.253599 14.6414 1.21498 16.199 2.76404C16.3387 2.90297 16.4496 3.06806 16.5254 3.24987C16.6013 3.43168 16.6406 3.62665 16.6411 3.82365C16.6416 4.02065 16.6033 4.21582 16.5284 4.39802C16.4535 4.58022 16.3434 4.74588 16.2045 4.88554C16.0656 5.0252 15.9005 5.13612 15.7187 5.21198C15.5369 5.28784 15.3419 5.32715 15.1449 5.32766C14.747 5.32869 14.3651 5.17164 14.083 4.89104C12.8664 3.67812 11.2179 2.99794 9.5 3.00004Z" fill="var(--fill-0, white)"/>
</g>
</svg>
