<svg width="24" height="24" viewBox="0 0 24 24" fill="none" xmlns="http://www.w3.org/2000/svg">
<path d="M23.9642 4.84217C23.948 4.56727 23.8314 4.30788 23.6367 4.11315C23.442 3.91842 23.1826 3.80188 22.9077 3.78561C17.9136 3.49217 13.8889 5.03811 12.1414 7.92374C11.0033 9.79874 10.9639 12.0647 12.0046 14.2331C11.498 14.8792 11.1084 15.609 10.8533 16.3894L9.66643 15.2025C10.3405 13.6303 10.2692 12.0047 9.44143 10.6378C8.13081 8.47124 5.14581 7.31249 1.45768 7.5253C1.18262 7.54159 0.923111 7.65826 0.728361 7.85319C0.533611 8.04811 0.417169 8.30773 0.401119 8.5828C0.187369 12.2709 1.34612 15.2559 3.51081 16.5665C4.24497 17.014 5.08852 17.2499 5.94831 17.2481C6.68135 17.2422 7.40548 17.0869 8.07643 16.7915L10.4999 19.2187V21.375C10.4999 21.6734 10.6184 21.9595 10.8294 22.1705C11.0404 22.3815 11.3265 22.5 11.6249 22.5C11.9232 22.5 12.2094 22.3815 12.4204 22.1705C12.6313 21.9595 12.7499 21.6734 12.7499 21.375V18.6103C12.7476 17.6047 13.0585 16.6233 13.6396 15.8025C14.5808 16.2484 15.6075 16.4847 16.6489 16.4953C17.7695 16.4979 18.8689 16.191 19.8261 15.6084C22.7108 13.8609 24.2586 9.83624 23.9642 4.84217ZM4.67612 14.6419C3.43956 13.8919 2.69049 12.0675 2.62956 9.75467C4.94237 9.81561 6.76768 10.5647 7.51674 11.8012C7.80968 12.2777 7.92983 12.8404 7.85706 13.395L6.79487 12.329C6.58353 12.1177 6.29688 11.999 5.99799 11.999C5.69911 11.999 5.41246 12.1177 5.20112 12.329C4.98977 12.5404 4.87104 12.827 4.87104 13.1259C4.87104 13.4248 4.98977 13.7115 5.20112 13.9228L6.26424 14.9859C5.71119 15.0542 5.15132 14.9329 4.67612 14.6419ZM18.6608 13.6875C17.6614 14.2922 16.5046 14.4065 15.3036 14.04L18.7958 10.5487C19.0072 10.3374 19.1259 10.0507 19.1259 9.75186C19.1259 9.45297 19.0072 9.16633 18.7958 8.95499C18.5845 8.74364 18.2978 8.62491 17.9989 8.62491C17.7 8.62491 17.4134 8.74364 17.2021 8.95499L13.7099 12.4462C13.3471 11.25 13.4614 10.0884 14.0624 9.09374C15.253 7.12499 18.0608 5.99999 21.6861 5.99999H21.7499C21.763 9.65624 20.638 12.4856 18.6608 13.6875Z" fill="currentColor"/>
</svg>
