<svg width="20" height="20" viewBox="0 0 20 20" fill="none" xmlns="http://www.w3.org/2000/svg">
<g clip-path="url(#clip0_101_2918)">
<path d="M7.49984 16.6667H4.99984C4.11578 16.6667 3.26794 16.3156 2.64281 15.6904C2.01769 15.0653 1.6665 14.2175 1.6665 13.3334V5.83341C1.6665 4.94936 2.01769 4.10151 2.64281 3.47639C3.26794 2.85127 4.11578 2.50008 4.99984 2.50008H14.1665C15.0506 2.50008 15.8984 2.85127 16.5235 3.47639C17.1486 4.10151 17.4998 4.94936 17.4998 5.83341V8.33341M6.6665 1.66675V3.33341M12.4998 1.66675V3.33341M1.6665 6.66675H17.4998M15.4165 13.0359L14.1665 14.2859" stroke="currentColor" stroke-width="1.66667" stroke-linecap="round" stroke-linejoin="round"/>
<path d="M14.1667 18.3333C16.4679 18.3333 18.3333 16.4679 18.3333 14.1667C18.3333 11.8655 16.4679 10 14.1667 10C11.8655 10 10 11.8655 10 14.1667C10 16.4679 11.8655 18.3333 14.1667 18.3333Z" stroke="currentColor" stroke-width="1.66667" stroke-linecap="round" stroke-linejoin="round"/>
</g>
<defs>
<clipPath id="clip0_101_2918">
<rect width="20" height="20" fill="white"/>
</clipPath>
</defs>
</svg>
