<svg preserveAspectRatio="none" width="100%" height="100%" overflow="visible" style="display: block;" viewBox="0 0 225.759 53.6" fill="none" xmlns="http://www.w3.org/2000/svg">
<g id="logo">
<g id="Vector">
<path d="M28.4 53.6H0V0H28.64C41.68 0 45.84 6.4 45.84 13.6C45.84 25.04 34.72 26.4 26.8 26.4C42.08 26.4 47.44 31.84 47.44 39.92C47.44 50.48 39.68 53.6 28.4 53.6ZM25.2 12.8H14.4V20.8H25.2C28.64 20.8 30.64 19.68 30.64 16.88C30.64 14 28.64 12.8 25.2 12.8ZM26.4 32H14.4V40.8H26.4C30.88 40.8 32.72 39.28 32.72 36.4C32.72 33.44 30.88 32 26.4 32Z" fill="#2E2B28"/>
<path d="M66.6656 53.6H52.2656V0H66.6656V53.6Z" fill="#2E2B28"/>
<path d="M177.759 53.6H163.359V14.08H177.759V25.76C178.799 19.2 181.999 13.28 190.719 13.28C197.599 13.28 201.759 17.84 201.759 25.76C202.799 19.2 205.999 13.28 214.719 13.28C221.599 13.28 225.759 17.84 225.759 25.92V53.6H211.359V31.52C211.359 26.72 210.479 24.16 206.559 24.16C202.799 24.16 201.759 25.68 201.759 32.08V53.6H187.359V31.52C187.359 26.72 186.479 24.16 182.559 24.16C178.799 24.16 177.759 25.68 177.759 32.08V53.6Z" fill="#2E2B28"/>
<path d="M105.608 41.983C111.462 40.4146 114.955 34.3643 113.386 28.5108C112.424 24.9176 109.778 22.2308 106.517 21.0339C108.743 18.367 109.691 14.7174 108.728 11.1242C107.968 8.30913 106.124 5.90993 103.598 4.45205C101.073 2.99417 98.0733 2.59644 95.2555 3.34599C91.6623 4.3088 88.9755 6.95435 87.7787 10.2152C85.1118 7.98962 81.4621 7.04193 77.8689 8.00473C72.0154 9.57318 68.5223 15.6234 70.0907 21.4769C71.0535 25.0702 73.6991 27.757 76.9599 28.9538C74.7343 31.6207 73.7866 35.2703 74.7494 38.8636C76.3179 44.7171 82.3681 48.2102 88.2216 46.6418C91.8149 45.679 94.5017 43.0334 95.6985 39.7725C98.3654 41.9981 102.015 42.9458 105.608 41.983ZM84.0112 27.0644C82.8672 22.795 85.3986 18.4104 89.668 17.2665C93.9374 16.1225 98.322 18.6539 99.466 22.9233C100.61 27.1927 98.0785 31.5773 93.8091 32.7213C89.5398 33.8653 85.1552 31.3338 84.0112 27.0644Z" fill="var(--fill-0, #548A5C)"/>
<path d="M158.277 24.6C158.277 18.54 153.337 13.6 147.277 13.6C143.557 13.6 140.277 15.46 138.277 18.3C136.277 15.46 132.997 13.6 129.277 13.6C126.361 13.6053 123.566 14.7659 121.504 16.8277C119.442 18.8894 118.282 21.6842 118.277 24.6C118.277 28.32 120.137 31.6 122.977 33.6C120.137 35.6 118.277 38.88 118.277 42.6C118.277 48.66 123.217 53.6 129.277 53.6C132.997 53.6 136.277 51.74 138.277 48.9C140.277 51.74 143.557 53.6 147.277 53.6C153.337 53.6 158.277 48.66 158.277 42.6C158.277 38.88 156.417 35.6 153.577 33.6C156.417 31.6 158.277 28.32 158.277 24.6ZM138.277 41.6C133.857 41.6 130.277 38.02 130.277 33.6C130.277 29.18 133.857 25.6 138.277 25.6C142.697 25.6 146.277 29.18 146.277 33.6C146.277 38.02 142.697 41.6 138.277 41.6Z" fill="var(--fill-0, #548A5C)"/>
</g>
</g>
</svg>
