<svg preserveAspectRatio="none" width="100%" height="100%" overflow="visible" style="display: block;" viewBox="0 0 61.4961 53.6" fill="none" xmlns="http://www.w3.org/2000/svg">
<g id="logo - symbol">
<g id="Vector">
<path d="M14.4 53.6H0V0H14.4V53.6Z" fill="#2E2B28"/>
<path d="M53.3427 41.983C59.1962 40.4146 62.6893 34.3643 61.1208 28.5108C60.158 24.9176 57.5125 22.2308 54.2516 21.0339C56.4772 18.367 57.4249 14.7174 56.4621 11.1242C55.7023 8.30913 53.8579 5.90993 51.3328 4.45205C48.8077 2.99417 45.8077 2.59644 42.9899 3.34599C39.3967 4.3088 36.7098 6.95435 35.513 10.2152C32.8461 7.98962 29.1965 7.04193 25.6032 8.00473C19.7497 9.57318 16.2566 15.6234 17.8251 21.4769C18.7879 25.0702 21.4334 27.757 24.6943 28.9538C22.4687 31.6207 21.521 35.2703 22.4838 38.8636C24.0523 44.7171 30.1025 48.2102 35.956 46.6418C39.5493 45.679 42.2361 43.0334 43.4329 39.7725C46.0998 41.9981 49.7494 42.9458 53.3427 41.983ZM31.7456 27.0644C30.6016 22.795 33.133 18.4104 37.4024 17.2665C41.6718 16.1225 46.0564 18.6539 47.2004 22.9233C48.3444 27.1927 45.8129 31.5773 41.5435 32.7213C37.2741 33.8653 32.8895 31.3338 31.7456 27.0644Z" fill="var(--fill-0, #548A5C)"/>
</g>
</g>
</svg>
